<svg width="269" height="64" viewBox="0 0 269 64" fill="none" xmlns="http://www.w3.org/2000/svg">
<g clip-path="url(#clip0_12331_1418)">
<rect width="269" height="64" rx="8" fill="#6A52CC"/>
<path opacity="0.3" d="M-6 13.9759C12.1851 11.1347 22.7411 0.203159 25.476 -18C28.2589 0.203159 38.8149 11.1347 57 13.9759C38.8149 16.8653 28.2589 27.7968 25.476 46C22.7411 27.7968 12.1851 16.8653 -6 13.9759Z" fill="#9999FE"/>
<path opacity="0.3" d="M195 65.9759C213.185 63.1347 223.741 52.2032 226.476 34C229.259 52.2032 239.815 63.1347 258 65.9759C239.815 68.8653 229.259 79.7968 226.476 98C223.741 79.7968 213.185 68.8653 195 65.9759Z" fill="#4E36AF"/>
<path d="M77.296 38V25.4H79.42L83.722 33.896L87.988 25.4H90.13V38H88.33V28.55L84.406 36.218H83.02L79.096 28.568V38H77.296ZM96.7796 38.216C95.9036 38.216 95.1296 38.024 94.4576 37.64C93.7856 37.244 93.2576 36.692 92.8736 35.984C92.5016 35.276 92.3156 34.454 92.3156 33.518C92.3156 32.57 92.5016 31.742 92.8736 31.034C93.2456 30.326 93.7676 29.774 94.4396 29.378C95.1236 28.97 95.9096 28.766 96.7976 28.766C97.6856 28.766 98.4476 28.964 99.0836 29.36C99.7196 29.756 100.212 30.278 100.56 30.926C100.908 31.574 101.082 32.288 101.082 33.068C101.082 33.188 101.082 33.32 101.082 33.464C101.082 33.596 101.076 33.746 101.064 33.914H93.6296V32.654H99.2816C99.2576 31.91 99.0056 31.328 98.5256 30.908C98.0576 30.476 97.4756 30.26 96.7796 30.26C96.2996 30.26 95.8496 30.374 95.4296 30.602C95.0216 30.818 94.6916 31.136 94.4396 31.556C94.1996 31.976 94.0796 32.51 94.0796 33.158V33.662C94.0796 34.322 94.1996 34.88 94.4396 35.336C94.6916 35.792 95.0216 36.14 95.4296 36.38C95.8376 36.608 96.2816 36.722 96.7616 36.722C97.3376 36.722 97.8116 36.596 98.1836 36.344C98.5676 36.08 98.8496 35.732 99.0296 35.3H100.83C100.674 35.852 100.41 36.35 100.038 36.794C99.6656 37.226 99.2036 37.574 98.6516 37.838C98.1116 38.09 97.4876 38.216 96.7796 38.216ZM101.353 41.96V40.43H102.055C102.499 40.43 102.811 40.34 102.991 40.16C103.171 39.98 103.261 39.68 103.261 39.26V28.982H105.061V39.296C105.061 39.92 104.953 40.43 104.737 40.826C104.533 41.222 104.227 41.51 103.819 41.69C103.411 41.87 102.919 41.96 102.343 41.96H101.353ZM104.179 27.254C103.831 27.254 103.543 27.146 103.315 26.93C103.099 26.714 102.991 26.438 102.991 26.102C102.991 25.778 103.099 25.514 103.315 25.31C103.543 25.094 103.831 24.986 104.179 24.986C104.515 24.986 104.791 25.094 105.007 25.31C105.235 25.514 105.349 25.778 105.349 26.102C105.349 26.438 105.235 26.714 105.007 26.93C104.791 27.146 104.515 27.254 104.179 27.254ZM111.757 38.216C110.905 38.216 110.137 38.024 109.453 37.64C108.781 37.244 108.247 36.692 107.851 35.984C107.467 35.264 107.275 34.436 107.275 33.5C107.275 32.552 107.473 31.724 107.869 31.016C108.265 30.308 108.805 29.756 109.489 29.36C110.173 28.964 110.935 28.766 111.775 28.766C112.639 28.766 113.407 28.964 114.079 29.36C114.763 29.756 115.297 30.308 115.681 31.016C116.077 31.712 116.275 32.54 116.275 33.5C116.275 34.448 116.077 35.276 115.681 35.984C115.285 36.692 114.745 37.244 114.061 37.64C113.377 38.024 112.609 38.216 111.757 38.216ZM111.757 36.668C112.237 36.668 112.681 36.554 113.089 36.326C113.497 36.086 113.821 35.732 114.061 35.264C114.313 34.784 114.439 34.196 114.439 33.5C114.439 32.792 114.313 32.204 114.061 31.736C113.821 31.268 113.497 30.914 113.089 30.674C112.693 30.434 112.255 30.314 111.775 30.314C111.319 30.314 110.881 30.434 110.461 30.674C110.053 30.914 109.723 31.268 109.471 31.736C109.231 32.204 109.111 32.792 109.111 33.5C109.111 34.196 109.231 34.784 109.471 35.264C109.723 35.732 110.047 36.086 110.443 36.326C110.851 36.554 111.289 36.668 111.757 36.668ZM118.374 38V28.982H119.994L120.156 30.692C120.36 30.296 120.618 29.954 120.93 29.666C121.254 29.378 121.632 29.156 122.064 29C122.496 28.844 122.988 28.766 123.54 28.766V30.674H122.964C122.58 30.674 122.214 30.722 121.866 30.818C121.53 30.914 121.236 31.07 120.984 31.286C120.732 31.49 120.534 31.778 120.39 32.15C120.246 32.522 120.174 32.99 120.174 33.554V38H118.374ZM128.201 38.216C127.457 38.216 126.839 38.09 126.347 37.838C125.855 37.586 125.489 37.25 125.249 36.83C125.009 36.41 124.889 35.954 124.889 35.462C124.889 34.862 125.039 34.352 125.339 33.932C125.651 33.512 126.095 33.188 126.671 32.96C127.259 32.732 127.955 32.618 128.759 32.618H131.117C131.117 32.09 131.039 31.658 130.883 31.322C130.727 30.974 130.493 30.716 130.181 30.548C129.869 30.368 129.485 30.278 129.029 30.278C128.489 30.278 128.021 30.41 127.625 30.674C127.229 30.926 126.989 31.31 126.905 31.826H125.105C125.177 31.178 125.393 30.632 125.753 30.188C126.125 29.732 126.599 29.384 127.175 29.144C127.751 28.892 128.369 28.766 129.029 28.766C129.869 28.766 130.577 28.916 131.153 29.216C131.729 29.516 132.167 29.942 132.467 30.494C132.767 31.034 132.917 31.682 132.917 32.438V38H131.351L131.207 36.47C131.087 36.71 130.931 36.938 130.739 37.154C130.559 37.37 130.343 37.556 130.091 37.712C129.851 37.868 129.569 37.988 129.245 38.072C128.933 38.168 128.585 38.216 128.201 38.216ZM128.543 36.758C128.927 36.758 129.275 36.68 129.587 36.524C129.899 36.368 130.163 36.158 130.379 35.894C130.607 35.618 130.775 35.312 130.883 34.976C131.003 34.64 131.069 34.286 131.081 33.914V33.878H128.939C128.423 33.878 128.003 33.944 127.679 34.076C127.355 34.196 127.121 34.37 126.977 34.598C126.845 34.814 126.779 35.06 126.779 35.336C126.779 35.624 126.845 35.876 126.977 36.092C127.121 36.308 127.325 36.476 127.589 36.596C127.853 36.704 128.171 36.758 128.543 36.758ZM143.51 38C142.946 38 142.454 37.91 142.034 37.73C141.614 37.55 141.29 37.25 141.062 36.83C140.834 36.41 140.72 35.84 140.72 35.12V30.512H139.154V28.982H140.72L140.936 26.732H142.52V28.982H145.076V30.512H142.52V35.138C142.52 35.654 142.622 36.008 142.826 36.2C143.042 36.38 143.42 36.47 143.96 36.47H144.986V38H143.51ZM150.356 38.216C149.648 38.216 149.03 38.072 148.502 37.784C147.986 37.496 147.584 37.058 147.296 36.47C147.02 35.882 146.882 35.15 146.882 34.274V28.982H148.682V34.094C148.682 34.946 148.862 35.594 149.222 36.038C149.594 36.47 150.134 36.686 150.842 36.686C151.322 36.686 151.748 36.572 152.12 36.344C152.504 36.116 152.804 35.786 153.02 35.354C153.236 34.91 153.344 34.376 153.344 33.752V28.982H155.144V38H153.542L153.416 36.452C153.14 36.992 152.732 37.424 152.192 37.748C151.664 38.06 151.052 38.216 150.356 38.216ZM162.197 41.96V28.982H163.817L163.997 30.386C164.189 30.11 164.429 29.852 164.717 29.612C165.005 29.36 165.347 29.156 165.743 29C166.151 28.844 166.625 28.766 167.165 28.766C168.029 28.766 168.785 28.976 169.433 29.396C170.093 29.804 170.609 30.368 170.981 31.088C171.353 31.796 171.539 32.606 171.539 33.518C171.539 34.418 171.353 35.222 170.981 35.93C170.609 36.638 170.093 37.196 169.433 37.604C168.773 38.012 168.011 38.216 167.147 38.216C166.439 38.216 165.815 38.078 165.275 37.802C164.735 37.514 164.309 37.118 163.997 36.614V41.96H162.197ZM166.859 36.65C167.411 36.65 167.903 36.518 168.335 36.254C168.767 35.99 169.103 35.624 169.343 35.156C169.595 34.676 169.721 34.124 169.721 33.5C169.721 32.876 169.595 32.33 169.343 31.862C169.103 31.382 168.767 31.01 168.335 30.746C167.903 30.47 167.411 30.332 166.859 30.332C166.295 30.332 165.797 30.47 165.365 30.746C164.933 31.01 164.597 31.376 164.357 31.844C164.117 32.312 163.997 32.864 163.997 33.5C163.997 34.124 164.117 34.676 164.357 35.156C164.597 35.624 164.933 35.99 165.365 36.254C165.797 36.518 166.295 36.65 166.859 36.65ZM173.64 38V25.04H175.44V38H173.64ZM180.9 38.216C180.156 38.216 179.538 38.09 179.046 37.838C178.554 37.586 178.188 37.25 177.948 36.83C177.708 36.41 177.588 35.954 177.588 35.462C177.588 34.862 177.738 34.352 178.038 33.932C178.35 33.512 178.794 33.188 179.37 32.96C179.958 32.732 180.654 32.618 181.458 32.618H183.816C183.816 32.09 183.738 31.658 183.582 31.322C183.426 30.974 183.192 30.716 182.88 30.548C182.568 30.368 182.184 30.278 181.728 30.278C181.188 30.278 180.72 30.41 180.324 30.674C179.928 30.926 179.688 31.31 179.604 31.826H177.804C177.876 31.178 178.092 30.632 178.452 30.188C178.824 29.732 179.298 29.384 179.874 29.144C180.45 28.892 181.068 28.766 181.728 28.766C182.568 28.766 183.276 28.916 183.852 29.216C184.428 29.516 184.866 29.942 185.166 30.494C185.466 31.034 185.616 31.682 185.616 32.438V38H184.05L183.906 36.47C183.786 36.71 183.63 36.938 183.438 37.154C183.258 37.37 183.042 37.556 182.79 37.712C182.55 37.868 182.268 37.988 181.944 38.072C181.632 38.168 181.284 38.216 180.9 38.216ZM181.242 36.758C181.626 36.758 181.974 36.68 182.286 36.524C182.598 36.368 182.862 36.158 183.078 35.894C183.306 35.618 183.474 35.312 183.582 34.976C183.702 34.64 183.768 34.286 183.78 33.914V33.878H181.638C181.122 33.878 180.702 33.944 180.378 34.076C180.054 34.196 179.82 34.37 179.676 34.598C179.544 34.814 179.478 35.06 179.478 35.336C179.478 35.624 179.544 35.876 179.676 36.092C179.82 36.308 180.024 36.476 180.288 36.596C180.552 36.704 180.87 36.758 181.242 36.758ZM187.896 38V28.982H189.516L189.624 30.548C189.912 29.996 190.32 29.564 190.848 29.252C191.376 28.928 191.988 28.766 192.684 28.766C193.404 28.766 194.022 28.916 194.538 29.216C195.054 29.504 195.45 29.942 195.726 30.53C196.014 31.106 196.158 31.838 196.158 32.726V38H194.358V32.906C194.358 32.054 194.172 31.412 193.8 30.98C193.44 30.536 192.906 30.314 192.198 30.314C191.718 30.314 191.286 30.428 190.902 30.656C190.53 30.884 190.236 31.214 190.02 31.646C189.804 32.078 189.696 32.612 189.696 33.248V38H187.896Z" fill="white"/>
</g>
<defs>
<clipPath id="clip0_12331_1418">
<rect width="269" height="64" rx="8" fill="white"/>
</clipPath>
</defs>
</svg>
