<svg width="15" height="15" viewBox="0 0 15 15" fill="none" xmlns="http://www.w3.org/2000/svg">
<path d="M6.75 1.41431H2.08333C1.72971 1.41431 1.39057 1.55478 1.14052 1.80483C0.890476 2.05488 0.75 2.39402 0.75 2.74764V12.081C0.75 12.4346 0.890476 12.7737 1.14052 13.0238C1.39057 13.2738 1.72971 13.4143 2.08333 13.4143H11.4167C11.7703 13.4143 12.1094 13.2738 12.3595 13.0238C12.6095 12.7737 12.75 12.4346 12.75 12.081V7.41431" stroke="white" stroke-width="1.5" stroke-linecap="round" stroke-linejoin="round"/>
<path d="M11 1.16421C11.2652 0.898997 11.6249 0.75 12 0.75C12.3751 0.75 12.7348 0.898997 13 1.16421C13.2652 1.42943 13.4142 1.78914 13.4142 2.16421C13.4142 2.53929 13.2652 2.899 13 3.16421L6.99136 9.17355C6.83305 9.33171 6.63749 9.44749 6.42269 9.51021L4.50735 10.0702C4.44999 10.0869 4.38918 10.0879 4.33129 10.0731C4.27341 10.0583 4.22057 10.0282 4.17832 9.98592C4.13607 9.94366 4.10595 9.89083 4.09112 9.83294C4.07629 9.77505 4.07729 9.71425 4.09402 9.65688L4.65402 7.74155C4.71704 7.52691 4.83304 7.33159 4.99136 7.17355L11 1.16421Z" stroke="white" stroke-width="1.5" stroke-linecap="round" stroke-linejoin="round"/>
</svg>
