<svg width="20" height="20" viewBox="0 0 20 20" fill="none" xmlns="http://www.w3.org/2000/svg">
<g clip-path="url(#clip0_12331_1413)">
<path d="M7.61354 7.61365L4.10743 4.10754M4.10743 15.8927L7.63996 12.3601M12.3842 12.3865L15.8903 15.8927M15.8903 4.10754L12.3573 7.6406M18.3333 10.0001C18.3333 14.6025 14.6024 18.3334 9.99999 18.3334C5.39762 18.3334 1.66666 14.6025 1.66666 10.0001C1.66666 5.39771 5.39762 1.66675 9.99999 1.66675C14.6024 1.66675 18.3333 5.39771 18.3333 10.0001ZM13.3333 10.0001C13.3333 11.841 11.8409 13.3334 9.99999 13.3334C8.15904 13.3334 6.66666 11.841 6.66666 10.0001C6.66666 8.15913 8.15904 6.66675 9.99999 6.66675C11.8409 6.66675 13.3333 8.15913 13.3333 10.0001Z" stroke="#CDCEDF" stroke-width="1.39167" stroke-linecap="round" stroke-linejoin="round"/>
</g>
<defs>
<clipPath id="clip0_12331_1413">
<rect width="20" height="20" fill="white"/>
</clipPath>
</defs>
</svg>
