<svg width="20" height="20" viewBox="0 0 20 20" fill="none" xmlns="http://www.w3.org/2000/svg">
<g clip-path="url(#clip0_12509_671)">
<path d="M9.99999 12.5001C11.3807 12.5001 12.5 11.3808 12.5 10.0001C12.5 8.61937 11.3807 7.50008 9.99999 7.50008C8.61928 7.50008 7.49999 8.61937 7.49999 10.0001C7.49999 11.3808 8.61928 12.5001 9.99999 12.5001Z" stroke="#CDCEDF" stroke-width="1.67" stroke-linecap="round" stroke-linejoin="round"/>
<path d="M15.6061 12.2728C15.5052 12.5013 15.4751 12.7548 15.5197 13.0005C15.5642 13.2463 15.6814 13.4731 15.8561 13.6516L15.9015 13.6971C16.0424 13.8378 16.1541 14.0049 16.2304 14.1888C16.3066 14.3727 16.3459 14.5699 16.3459 14.769C16.3459 14.9681 16.3066 15.1653 16.2304 15.3492C16.1541 15.5332 16.0424 15.7003 15.9015 15.841C15.7608 15.9819 15.5937 16.0936 15.4097 16.1699C15.2258 16.2461 15.0287 16.2854 14.8295 16.2854C14.6304 16.2854 14.4333 16.2461 14.2493 16.1699C14.0654 16.0936 13.8983 15.9819 13.7576 15.841L13.7121 15.7955C13.5336 15.6209 13.3068 15.5037 13.061 15.4592C12.8153 15.4146 12.5618 15.4447 12.3333 15.5455C12.1093 15.6416 11.9182 15.801 11.7836 16.0043C11.649 16.2075 11.5767 16.4457 11.5757 16.6895V16.8183C11.5757 17.2201 11.4161 17.6055 11.132 17.8896C10.8478 18.1738 10.4624 18.3334 10.0606 18.3334C9.65875 18.3334 9.27337 18.1738 8.98922 17.8896C8.70508 17.6055 8.54544 17.2201 8.54544 16.8183V16.7501C8.53958 16.4993 8.45841 16.2561 8.3125 16.0521C8.16658 15.8481 7.96267 15.6927 7.72726 15.6061C7.49877 15.5053 7.2453 15.4752 6.99954 15.5198C6.75379 15.5643 6.52702 15.6815 6.34847 15.8561L6.30302 15.9016C6.1623 16.0425 5.9952 16.1542 5.81126 16.2305C5.62733 16.3067 5.43016 16.346 5.23105 16.346C5.03194 16.346 4.83477 16.3067 4.65084 16.2305C4.4669 16.1542 4.2998 16.0425 4.15908 15.9016C4.01821 15.7609 3.90645 15.5938 3.8302 15.4098C3.75395 15.2259 3.71471 15.0287 3.71471 14.8296C3.71471 14.6305 3.75395 14.4334 3.8302 14.2494C3.90645 14.0655 4.01821 13.8984 4.15908 13.7577L4.20454 13.7122C4.37918 13.5337 4.49634 13.3069 4.5409 13.0611C4.58546 12.8154 4.55538 12.5619 4.45454 12.3334C4.3585 12.1093 4.19905 11.9183 3.9958 11.7836C3.79255 11.649 3.55437 11.5768 3.3106 11.5758H3.18181C2.77996 11.5758 2.39458 11.4162 2.11043 11.1321C1.82629 10.8479 1.66666 10.4625 1.66666 10.0607C1.66666 9.65884 1.82629 9.27346 2.11043 8.98931C2.39458 8.70517 2.77996 8.54554 3.18181 8.54554H3.24999C3.50074 8.53967 3.74393 8.45851 3.94794 8.31259C4.15195 8.16667 4.30735 7.96276 4.39393 7.72735C4.49477 7.49886 4.52486 7.24539 4.4803 6.99964C4.43574 6.75388 4.31858 6.52711 4.14393 6.34857L4.09847 6.30311C3.9576 6.1624 3.84585 5.99529 3.7696 5.81135C3.69335 5.62742 3.6541 5.43026 3.6541 5.23114C3.6541 5.03203 3.69335 4.83487 3.7696 4.65093C3.84585 4.46699 3.9576 4.29989 4.09847 4.15917C4.23919 4.0183 4.4063 3.90654 4.59023 3.83029C4.77417 3.75405 4.97133 3.7148 5.17044 3.7148C5.36956 3.7148 5.56672 3.75405 5.75066 3.83029C5.93459 3.90654 6.1017 4.0183 6.24241 4.15917L6.28787 4.20463C6.46641 4.37928 6.69318 4.49643 6.93894 4.54099C7.18469 4.58555 7.43816 4.55547 7.66666 4.45463H7.72726C7.95133 4.35859 8.14243 4.19914 8.27703 3.99589C8.41163 3.79264 8.48387 3.55447 8.48484 3.31069V3.1819C8.48484 2.78006 8.64447 2.39467 8.92862 2.11053C9.21276 1.82638 9.59815 1.66675 9.99999 1.66675C10.4018 1.66675 10.7872 1.82638 11.0714 2.11053C11.3555 2.39467 11.5151 2.78006 11.5151 3.1819V3.25008C11.5161 3.49386 11.5883 3.73203 11.723 3.93528C11.8576 4.13853 12.0487 4.29799 12.2727 4.39402C12.5012 4.49487 12.7547 4.52495 13.0004 4.48039C13.2462 4.43583 13.473 4.31867 13.6515 4.14402L13.697 4.09857C13.8377 3.95769 14.0048 3.84594 14.1887 3.76969C14.3727 3.69344 14.5698 3.65419 14.7689 3.65419C14.968 3.65419 15.1652 3.69344 15.3491 3.76969C15.5331 3.84594 15.7002 3.95769 15.8409 4.09857C15.9818 4.23928 16.0935 4.40639 16.1698 4.59032C16.246 4.77426 16.2853 4.97142 16.2853 5.17054C16.2853 5.36965 16.246 5.56681 16.1698 5.75075C16.0935 5.93469 15.9818 6.10179 15.8409 6.24251L15.7954 6.28796C15.6208 6.46651 15.5036 6.69328 15.4591 6.93903C15.4145 7.18478 15.4446 7.43825 15.5454 7.66675V7.72735C15.6415 7.95142 15.8009 8.14252 16.0042 8.27712C16.2074 8.41172 16.4456 8.48396 16.6894 8.48493H16.8182C17.22 8.48493 17.6054 8.64456 17.8895 8.92871C18.1737 9.21285 18.3333 9.59824 18.3333 10.0001C18.3333 10.4019 18.1737 10.7873 17.8895 11.0715C17.6054 11.3556 17.22 11.5152 16.8182 11.5152H16.75C16.5062 11.5162 16.268 11.5884 16.0648 11.723C15.8615 11.8576 15.7021 12.0487 15.6061 12.2728Z" stroke="#CDCEDF" stroke-width="1.67" stroke-linecap="round" stroke-linejoin="round"/>
</g>
<defs>
<clipPath id="clip0_12509_671">
<rect width="20" height="20" fill="white"/>
</clipPath>
</defs>
</svg>
