<svg width="108" height="28" viewBox="0 0 108 28" fill="none" xmlns="http://www.w3.org/2000/svg">
<path d="M96.095 11.8101C96.095 14.1245 97.0516 15.282 98.9644 15.2821C99.9436 15.2821 100.718 14.9842 101.287 14.3885C101.857 13.7697 102.141 12.8988 102.141 11.7759V3.52619H107.333C107.333 9.01441 107.333 14.5028 107.333 19.991C107.333 22.4888 106.57 24.4482 105.045 25.869C103.542 27.2897 101.47 28 98.828 28C96.4597 28 94.5695 27.4729 93.1577 26.4188C91.6178 25.2757 90.7323 23.486 90.7323 21.5722H95.5884C96.0555 23.133 97.2327 23.7032 98.828 23.7032C101.173 23.7032 102.346 22.4658 102.346 19.991V17.4131C102.346 17.4131 101.287 19.9221 97.1199 19.9221C95.1615 19.9221 93.6359 19.3265 92.5428 18.1349C91.4498 16.9433 90.9031 15.2591 90.9031 13.0822C90.9031 9.89694 90.9032 6.71144 90.9031 3.52619H96.095V11.8101Z" fill="white"/>
<path fill-rule="evenodd" clip-rule="evenodd" d="M8.88087 3.07937C11.4541 3.07937 13.5492 3.89301 15.166 5.52001C16.8056 7.12409 17.6254 9.23245 17.6254 11.8448C17.6254 12.4845 17.5594 13.2541 17.5594 13.2541H5.15742C5.52178 15.4309 6.83136 16.5195 9.08565 16.5195C10.6797 16.5195 11.7273 16.061 12.2282 15.1444C12.3876 14.8465 12.4073 14.6976 12.4073 14.6976H17.2949C17.2949 16.4036 15.6153 18.2053 14.3459 19.0974C12.9114 20.0826 11.1354 20.5755 9.01772 20.5755C6.30787 20.5755 4.12169 19.7618 2.45933 18.1349C0.819745 16.5079 0 14.4226 0 11.879C1.14573e-05 9.33537 0.819757 7.23877 2.45933 5.58887C4.12169 3.91604 6.26209 3.07937 8.88087 3.07937ZM8.94929 7.1012C6.94541 7.1012 5.70408 8.08641 5.22584 10.057H12.3991C12.0119 8.08648 10.862 7.10124 8.94929 7.1012Z" fill="white"/>
<path d="M25.1378 12.3258C25.1378 14.6402 26.0716 15.7977 27.9388 15.7978C29.9945 15.7978 31.1158 14.2689 31.1158 12.2916V3.52619H36.3077V20.1287H31.2522V17.8224C31.2375 17.8519 29.8747 20.5755 26.0943 20.5755C24.1587 20.5755 22.6442 19.9681 21.5512 18.7536C20.481 17.5391 19.9459 15.8318 19.9459 13.632C19.9459 10.2635 19.9461 6.89476 19.9459 3.52619H25.1378V12.3258Z" fill="white"/>
<path fill-rule="evenodd" clip-rule="evenodd" d="M60.7035 3.07937C63.2767 3.07937 65.3719 3.89305 66.9887 5.52001C68.6283 7.1241 69.448 9.23242 69.448 11.8448C69.448 12.4845 69.382 13.2541 69.382 13.2541H56.9805C57.3449 15.431 58.6544 16.5195 60.9088 16.5195C62.5028 16.5195 63.5504 16.061 64.0514 15.1444C64.2107 14.8466 64.2304 14.6976 64.2304 14.6976H69.1175C69.1175 16.4036 67.4384 18.2053 66.1691 19.0974C64.7344 20.0827 62.9581 20.5755 60.8404 20.5755C58.1305 20.5755 55.9443 19.7619 54.282 18.1349C52.6424 16.5079 51.8226 14.4226 51.8226 11.879C51.8226 9.33542 52.6425 7.23875 54.282 5.58887C55.9443 3.91608 58.0848 3.07942 60.7035 3.07937ZM60.7719 7.1012C58.7681 7.10125 57.5272 8.08649 57.049 10.057H64.2222C63.835 8.08641 62.6847 7.1012 60.7719 7.1012Z" fill="white"/>
<path d="M49.5555 3.21708C49.7604 3.21708 50.5295 3.27528 50.922 3.40557V8.47095C50.922 8.47095 50.1128 8.2698 49.2143 8.26976C46.254 8.26976 44.7736 10.0229 44.7736 13.529V20.1287H39.5813C39.5813 14.5946 39.5811 9.06028 39.5813 3.52619H44.6368V6.34479C44.6462 6.32409 46.0631 3.2172 49.5555 3.21708Z" fill="white"/>
<path d="M77.1317 9.71374H78.8054L82.8137 3.52619C84.8415 3.52619 86.8693 3.53223 88.897 3.53546C87.4066 6.1331 85.5593 8.56691 83.8949 11.0542C87.5256 13.2159 88.7532 16.2435 88.8932 20.1287H83.4198C83.3534 16.4052 80.5777 14.4569 77.1317 14.4568V20.1287H71.9394V0H77.1317V9.71374Z" fill="white"/>
</svg>
