<svg width="42" height="21" viewBox="0 0 42 21" fill="none" xmlns="http://www.w3.org/2000/svg">
<path d="M42 3.39338C41.9829 3.39183 41.3919 3.34048 41.206 3.58832C41.0461 3.80271 41.307 5.46396 41.4237 7.63256C41.5241 9.4979 41.6622 12.6452 38.2831 14.0013C36.8693 14.5686 34.8658 15.0336 33.1846 15.285C32.47 17.1416 30.6211 18.6343 28.9735 19.6239C28.0272 20.1923 23.6743 22.0735 23.1572 20.1644C23.0991 19.8907 23.1328 19.5895 23.3043 19.3339C23.4801 19.0718 23.765 18.9109 24.1007 18.8622C26.5001 18.5151 28.8438 17.4125 30.3063 15.4508C26.8654 15.0211 25.3393 11.1031 23.3607 8.55412C22.1136 6.94098 20.7737 7.12096 20.2894 9.16988C19.4871 12.5342 19.8366 17.1514 16.0428 18.6003C14.4268 19.2468 11.1567 19.9984 8.93447 20.0596C5.28088 20.1601 4.09249 17.2301 3.40474 15.4864C2.60503 13.4588 2.14898 11.8379 1.91345 11.7059C1.63809 11.552 1.11444 11.8388 1.10661 11.8431L0 8.60771C5.04817 6.51955 10.9018 4.73678 16.4777 5.21618C19.1775 5.43122 22.7435 4.73562 25.1902 3.43172C30.0833 0.784068 36.1756 0.093152 41.6594 0L42 3.39338Z" fill="white"/>
</svg>
