<svg width="14" height="14" viewBox="0 0 14 14" fill="none" xmlns="http://www.w3.org/2000/svg">
<path d="M2.04133 2.93667L3.45 11.4453C3.51443 11.8349 3.71506 12.1889 4.01613 12.4443C4.31721 12.6997 4.69918 12.8399 5.094 12.84H7.326M11.7913 2.93667L10.3833 11.4453C10.3189 11.8349 10.1183 12.1889 9.8172 12.4443C9.51612 12.6997 9.13415 12.8399 8.73933 12.84H6.50733M5.598 6.20533V9.57133M8.23533 6.20533V9.57133M0.75 2.93667H13.0833M8.768 2.93667V1.75C8.768 1.48478 8.66264 1.23043 8.47511 1.04289C8.28757 0.855357 8.03322 0.75 7.768 0.75H6.06533C5.80012 0.75 5.54576 0.855357 5.35823 1.04289C5.17069 1.23043 5.06533 1.48478 5.06533 1.75V2.93667H8.768Z" stroke="white" stroke-width="1.5" stroke-linecap="round" stroke-linejoin="round"/>
</svg>
