<svg width="15" height="14" viewBox="0 0 15 14" fill="none" xmlns="http://www.w3.org/2000/svg">
<path fill-rule="evenodd" clip-rule="evenodd" d="M12.6667 1.33333H2C1.82319 1.33333 1.65362 1.40357 1.5286 1.5286C1.40357 1.65362 1.33333 1.82319 1.33333 2V11.3333C1.33333 11.5101 1.40357 11.6797 1.5286 11.8047C1.65362 11.9298 1.82319 12 2 12H12.6667C12.8435 12 13.013 11.9298 13.1381 11.8047C13.2631 11.6797 13.3333 11.5101 13.3333 11.3333V2C13.3333 1.82319 13.2631 1.65362 13.1381 1.5286C13.013 1.40357 12.8435 1.33333 12.6667 1.33333ZM2 0C1.46957 0 0.960859 0.210714 0.585786 0.585786C0.210714 0.960859 0 1.46957 0 2V11.3333C0 11.8638 0.210714 12.3725 0.585786 12.7475C0.960859 13.1226 1.46957 13.3333 2 13.3333H12.6667C13.1971 13.3333 13.7058 13.1226 14.0809 12.7475C14.456 12.3725 14.6667 11.8638 14.6667 11.3333V2C14.6667 1.46957 14.456 0.960859 14.0809 0.585786C13.7058 0.210714 13.1971 0 12.6667 0H2ZM3.33333 3.33333H4.66667V4.66667H3.33333V3.33333ZM6.66667 3.33333C6.48986 3.33333 6.32029 3.40357 6.19526 3.5286C6.07024 3.65362 6 3.82319 6 4C6 4.17681 6.07024 4.34638 6.19526 4.4714C6.32029 4.59643 6.48986 4.66667 6.66667 4.66667H10.6667C10.8435 4.66667 11.013 4.59643 11.1381 4.4714C11.2631 4.34638 11.3333 4.17681 11.3333 4C11.3333 3.82319 11.2631 3.65362 11.1381 3.5286C11.013 3.40357 10.8435 3.33333 10.6667 3.33333H6.66667ZM4.66667 6H3.33333V7.33333H4.66667V6ZM6 6.66667C6 6.48986 6.07024 6.32029 6.19526 6.19526C6.32029 6.07024 6.48986 6 6.66667 6H10.6667C10.8435 6 11.013 6.07024 11.1381 6.19526C11.2631 6.32029 11.3333 6.48986 11.3333 6.66667C11.3333 6.84348 11.2631 7.01305 11.1381 7.13807C11.013 7.26309 10.8435 7.33333 10.6667 7.33333H6.66667C6.48986 7.33333 6.32029 7.26309 6.19526 7.13807C6.07024 7.01305 6 6.84348 6 6.66667ZM4.66667 8.66667H3.33333V10H4.66667V8.66667ZM6 9.33333C6 9.15652 6.07024 8.98695 6.19526 8.86193C6.32029 8.7369 6.48986 8.66667 6.66667 8.66667H10.6667C10.8435 8.66667 11.013 8.7369 11.1381 8.86193C11.2631 8.98695 11.3333 9.15652 11.3333 9.33333C11.3333 9.51014 11.2631 9.67971 11.1381 9.80474C11.013 9.92976 10.8435 10 10.6667 10H6.66667C6.48986 10 6.32029 9.92976 6.19526 9.80474C6.07024 9.67971 6 9.51014 6 9.33333Z" fill="white"/>
</svg>
